<svg id="svg" version="1.1" xmlns="http://www.w3.org/2000/svg" xmlns:xlink="http://www.w3.org/1999/xlink" width="400" height="412.5" viewBox="0, 0, 400,412.5"><g id="svgg"><path id="path0" d="M0.000 168.600 L 0.000 337.200 3.111 337.200 C 5.279 337.200,6.491 337.389,7.111 337.823 C 7.842 338.335,8.000 338.346,8.000 337.886 C 8.000 337.213,11.338 333.600,11.960 333.600 C 12.202 333.600,12.400 333.420,12.400 333.200 C 12.400 332.980,12.674 332.800,13.009 332.800 C 13.551 332.800,13.549 332.695,12.995 331.849 C 12.244 330.702,13.753 328.392,16.743 326.112 L 18.462 324.800 37.353 324.800 L 56.243 324.800 58.077 325.963 C 60.520 327.512,62.640 330.551,62.106 331.739 C 61.769 332.489,61.963 332.777,63.614 333.979 C 64.656 334.737,65.927 336.035,66.439 336.864 C 67.272 338.211,67.438 338.308,68.017 337.785 C 69.157 336.753,80.593 336.959,82.400 338.043 C 85.510 339.911,87.915 343.064,87.220 344.363 C 86.888 344.982,87.058 345.273,88.207 346.055 C 88.969 346.575,90.173 347.771,90.881 348.713 C 91.976 350.171,92.327 350.392,93.228 350.194 C 95.451 349.706,100.984 355.393,99.407 356.545 C 97.885 357.658,102.865 358.139,117.553 358.299 L 131.306 358.448 132.453 357.349 L 133.600 356.250 133.600 350.004 L 133.600 343.757 132.300 342.526 C 131.528 341.796,130.355 341.181,129.414 341.013 C 122.158 339.723,121.053 336.893,120.882 319.147 C 120.731 303.537,121.088 304.728,116.127 303.249 C 109.138 301.167,108.411 299.090,108.405 281.175 L 108.400 268.550 107.300 267.517 C 106.695 266.949,105.577 266.353,104.816 266.192 C 97.866 264.724,96.013 261.355,96.005 250.175 L 96.000 243.750 94.895 242.691 C 94.275 242.097,92.565 241.256,90.995 240.774 C 87.421 239.677,85.183 237.523,84.238 234.271 C 83.278 230.969,83.278 181.431,84.238 178.129 C 85.183 174.877,87.421 172.723,90.995 171.626 C 92.565 171.144,94.275 170.303,94.895 169.709 L 96.000 168.650 96.005 137.225 C 96.010 104.286,96.062 103.196,97.768 100.593 C 99.145 98.492,101.807 96.831,104.800 96.208 C 105.570 96.047,106.695 95.451,107.300 94.883 L 108.400 93.850 108.400 87.398 C 108.400 80.273,108.874 77.760,110.731 75.036 C 111.880 73.351,115.742 71.201,117.622 71.200 C 119.088 71.200,121.056 68.989,121.382 66.976 C 122.564 59.670,125.862 58.400,143.656 58.400 L 156.368 58.400 157.392 57.300 C 157.956 56.695,158.600 55.480,158.824 54.600 C 159.877 50.451,161.261 48.660,164.600 47.121 L 166.600 46.200 200.000 46.200 L 233.400 46.200 235.400 47.121 C 238.739 48.660,240.123 50.451,241.176 54.600 C 241.400 55.480,242.044 56.695,242.608 57.300 L 243.632 58.400 256.344 58.400 C 274.138 58.400,277.436 59.670,278.618 66.976 C 278.944 68.989,280.912 71.200,282.378 71.200 C 284.258 71.201,288.120 73.351,289.269 75.036 C 291.126 77.760,291.600 80.273,291.600 87.398 L 291.600 93.850 292.700 94.883 C 293.305 95.451,294.430 96.047,295.200 96.208 C 298.193 96.831,300.855 98.492,302.232 100.593 C 303.938 103.196,303.990 104.286,303.995 137.225 L 304.000 168.650 305.105 169.709 C 305.725 170.303,307.435 171.144,309.005 171.626 C 312.579 172.723,314.817 174.877,315.762 178.129 C 316.722 181.431,316.722 230.969,315.762 234.271 C 314.817 237.523,312.579 239.677,309.005 240.774 C 307.435 241.256,305.725 242.097,305.105 242.691 L 304.000 243.750 303.995 250.175 C 303.987 261.355,302.134 264.724,295.184 266.192 C 294.423 266.353,293.305 266.949,292.700 267.517 L 291.600 268.550 291.595 281.175 C 291.589 299.090,290.862 301.167,283.873 303.249 C 278.912 304.728,279.269 303.537,279.118 319.147 C 278.946 336.988,277.881 339.717,270.581 341.014 C 269.645 341.181,268.470 341.797,267.700 342.526 L 266.400 343.757 266.400 350.004 L 266.400 356.250 267.547 357.349 L 268.694 358.448 282.447 358.299 C 297.135 358.139,302.115 357.658,300.593 356.545 C 299.016 355.393,304.549 349.706,306.772 350.194 C 307.673 350.392,308.024 350.171,309.119 348.713 C 309.827 347.771,311.031 346.575,311.793 346.055 C 312.956 345.263,313.114 344.987,312.771 344.345 C 312.210 343.297,313.974 340.708,316.608 338.713 L 318.600 337.204 324.811 337.202 C 329.540 337.200,331.216 337.336,331.835 337.770 C 332.588 338.297,332.717 338.229,333.570 336.848 C 334.077 336.028,335.344 334.737,336.386 333.979 C 338.037 332.777,338.231 332.489,337.894 331.739 C 337.360 330.551,339.480 327.512,341.923 325.963 L 343.757 324.800 362.647 324.800 L 381.538 324.800 383.257 326.112 C 386.247 328.392,387.756 330.702,387.005 331.849 C 386.451 332.695,386.449 332.800,386.991 332.800 C 387.326 332.800,387.600 332.980,387.600 333.200 C 387.600 333.420,387.798 333.600,388.040 333.600 C 388.662 333.600,392.000 337.213,392.000 337.886 C 392.000 338.346,392.158 338.335,392.889 337.823 C 393.509 337.389,394.721 337.200,396.889 337.200 L 400.000 337.200 400.000 168.600 L 400.000 0.000 200.000 0.000 L 0.000 0.000 0.000 168.600 " stroke="none" fill="#3cbcfc" fill-rule="evenodd"></path><path id="path1" d="M167.800 50.464 C 166.158 51.367,163.886 53.884,162.345 56.509 C 161.372 58.166,159.974 59.835,158.741 60.809 L 156.728 62.400 144.042 62.400 L 131.357 62.400 129.531 63.558 C 127.640 64.757,126.188 66.424,125.013 68.746 C 123.908 70.930,121.234 73.544,118.425 75.189 C 113.031 78.346,112.403 79.652,112.401 87.728 L 112.400 94.056 111.235 95.749 C 110.104 97.394,109.593 97.799,104.680 100.947 C 103.241 101.870,101.913 103.140,101.180 104.295 L 100.000 106.157 99.998 137.578 L 99.996 169.000 98.483 171.000 C 97.522 172.269,95.951 173.611,94.185 174.671 C 92.653 175.590,90.545 177.267,89.500 178.399 L 87.600 180.456 87.600 206.200 L 87.600 231.944 89.500 234.001 C 90.545 235.133,92.653 236.810,94.185 237.729 C 95.951 238.789,97.522 240.131,98.483 241.400 L 99.996 243.400 99.998 249.928 L 100.000 256.456 101.245 258.266 C 101.973 259.323,103.512 260.721,104.945 261.626 C 109.020 264.200,110.343 265.274,111.395 266.865 L 112.400 268.383 112.400 281.102 C 112.400 292.260,112.481 293.943,113.060 294.811 C 114.402 296.821,116.267 298.507,118.800 300.000 C 121.427 301.549,123.530 303.471,124.352 305.074 C 124.655 305.664,124.800 310.023,124.800 318.505 L 124.800 331.063 126.039 332.934 C 127.286 334.816,128.172 335.545,132.624 338.355 C 134.154 339.320,135.519 340.595,136.324 341.811 L 137.600 343.737 137.600 350.037 L 137.600 356.338 136.288 358.057 C 135.567 359.003,134.203 360.367,133.257 361.088 L 131.538 362.400 118.601 362.400 C 111.485 362.400,102.942 362.591,99.616 362.825 L 93.569 363.250 91.335 361.724 C 89.658 360.578,88.739 359.552,87.650 357.610 C 86.853 356.187,85.259 354.072,84.108 352.911 L 82.017 350.800 75.308 350.792 L 68.600 350.785 66.704 349.594 C 64.771 348.380,62.717 345.959,61.789 343.800 C 61.045 342.071,59.707 340.482,57.877 339.157 L 56.280 338.000 37.596 338.000 L 18.912 338.000 17.398 339.027 C 15.480 340.329,14.634 341.316,13.365 343.736 C 10.808 348.612,7.603 350.800,3.016 350.800 L 0.000 350.800 0.000 381.600 L 0.000 412.400 200.000 412.400 L 400.000 412.400 400.000 381.600 L 400.000 350.800 396.984 350.800 C 392.397 350.800,389.192 348.612,386.635 343.736 C 385.362 341.309,384.611 340.442,382.607 339.081 L 381.014 338.000 362.367 338.000 L 343.720 338.000 342.123 339.157 C 340.293 340.482,338.955 342.071,338.211 343.800 C 337.283 345.959,335.229 348.380,333.296 349.594 L 331.400 350.785 324.692 350.792 L 317.983 350.800 315.892 352.911 C 314.741 354.072,313.147 356.187,312.350 357.610 C 311.261 359.552,310.342 360.578,308.665 361.724 L 306.431 363.250 300.384 362.825 C 297.058 362.591,288.515 362.400,281.399 362.400 L 268.462 362.400 266.743 361.088 C 265.797 360.367,264.433 359.003,263.712 358.057 L 262.400 356.338 262.400 350.037 L 262.400 343.737 263.676 341.811 C 264.481 340.595,265.846 339.320,267.376 338.355 C 271.828 335.545,272.714 334.816,273.961 332.934 L 275.200 331.063 275.200 318.505 C 275.200 310.023,275.345 305.664,275.648 305.074 C 276.470 303.471,278.573 301.549,281.200 300.000 C 283.733 298.507,285.598 296.821,286.940 294.811 C 287.519 293.943,287.600 292.260,287.600 281.102 L 287.600 268.383 288.605 266.865 C 289.657 265.274,290.980 264.200,295.055 261.626 C 296.488 260.721,298.027 259.323,298.755 258.266 L 300.000 256.456 300.002 249.928 L 300.004 243.400 301.517 241.400 C 302.478 240.131,304.049 238.789,305.815 237.729 C 307.347 236.810,309.455 235.133,310.500 234.001 L 312.400 231.944 312.400 206.200 L 312.400 180.456 310.500 178.399 C 309.455 177.267,307.347 175.590,305.815 174.671 C 304.049 173.611,302.478 172.269,301.517 171.000 L 300.004 169.000 300.002 137.578 L 300.000 106.157 298.820 104.295 C 298.087 103.140,296.759 101.870,295.320 100.947 C 290.407 97.799,289.896 97.394,288.765 95.749 L 287.600 94.056 287.599 87.728 C 287.597 79.652,286.969 78.346,281.575 75.189 C 278.766 73.544,276.092 70.930,274.987 68.746 C 273.812 66.424,272.360 64.757,270.469 63.558 L 268.643 62.400 255.958 62.400 L 243.272 62.400 241.259 60.809 C 240.026 59.835,238.628 58.166,237.655 56.509 C 236.066 53.803,233.776 51.292,232.126 50.447 C 230.902 49.821,168.941 49.837,167.800 50.464 " stroke="none" fill="#040404" fill-rule="evenodd"></path><path id="path2" d="M16.743 326.112 C 12.322 329.483,11.681 332.162,14.944 333.618 C 17.060 334.562,56.695 334.627,59.391 333.691 C 63.344 332.319,62.769 328.938,58.077 325.963 L 56.243 324.800 37.353 324.800 L 18.462 324.800 16.743 326.112 M341.923 325.963 C 337.231 328.938,336.656 332.319,340.609 333.691 C 343.305 334.627,382.940 334.562,385.056 333.618 C 388.319 332.162,387.678 329.483,383.257 326.112 L 381.538 324.800 362.647 324.800 L 343.757 324.800 341.923 325.963 M0.000 342.000 L 0.000 346.800 3.240 346.800 C 8.000 346.800,9.770 344.950,8.947 340.836 C 8.415 338.173,6.887 337.200,3.240 337.200 L 0.000 337.200 0.000 342.000 M67.451 338.412 C 66.488 339.557,65.607 341.847,65.602 343.219 C 65.601 343.559,66.283 344.504,67.117 345.319 L 68.634 346.800 75.444 346.800 C 87.407 346.800,90.202 344.680,84.748 339.742 C 82.136 337.378,81.448 337.203,74.736 337.201 L 68.471 337.200 67.451 338.412 M316.608 338.713 C 309.313 344.238,311.843 346.800,324.591 346.800 L 331.438 346.800 332.969 345.231 C 334.373 343.794,334.477 343.536,334.216 342.145 C 333.376 337.667,332.486 337.200,324.811 337.202 L 318.600 337.204 316.608 338.713 M392.413 338.386 C 388.736 342.322,391.050 346.800,396.760 346.800 L 400.000 346.800 400.000 342.000 L 400.000 337.200 396.760 337.200 C 393.685 337.200,393.465 337.260,392.413 338.386 M92.573 350.684 C 90.460 352.797,90.252 356.112,92.119 357.922 C 93.767 359.519,93.884 359.515,97.242 357.750 C 100.427 356.076,100.365 356.224,98.799 354.061 C 96.495 350.882,93.824 349.433,92.573 350.684 M304.061 351.201 C 302.545 352.300,300.000 355.313,300.000 356.010 C 300.000 356.392,305.352 359.200,306.080 359.200 C 309.004 359.200,310.035 353.506,307.587 350.879 C 306.512 349.724,306.041 349.767,304.061 351.201 " stroke="none" fill="#fcfcfc" fill-rule="evenodd"></path><path id="path3" d="" stroke="none" fill="#50ac100" fill-rule="evenodd"></path><path id="path4" d="" stroke="none" fill="#50ac100" fill-rule="evenodd"></path></g></svg>